# xmcd
#
# Track frame offsets: 
#        150
#        24841
#        45969
#        68543
#        84953
#        105889
#        132541
#        155593
#        174455
#        195379
#        218425
#        240638
#        256895
#        277873
#        299809
#
# Disc length: 4257 seconds
#
# Revision: 1
# Processed by: cddbd v1.5.2PL0 Copyright (c) Steve Scherf et al.
# Submitted via: ExactAudioCopyFreeDBPlugin 1.0
#
DISCID=bc109f0f
DTITLE=群星 - TEST-CD试音极品08CDB
DYEAR=2012
DGENRE=stereo
TTITLE0=走过别啡屋
TTITLE1=心甘情愿
TTITLE2=爱你爱到心里面
TTITLE3=今生相爱
TTITLE4=抉择
TTITLE5=爱江山更爱美人
TTITLE6=嘀嗒
TTITLE7=请你等等我
TTITLE8=再回到从前
TTITLE9=但愿人长久
TTITLE10=偷偷的哭
TTITLE11=想你想断肠
TTITLE12=殤
TTITLE13=一年又一年
TTITLE14=总有一天等到你
EXTD=
EXTT0=
EXTT1=
EXTT2=
EXTT3=
EXTT4=
EXTT5=
EXTT6=
EXTT7=
EXTT8=
EXTT9=
EXTT10=
EXTT11=
EXTT12=
EXTT13=
EXTT14=
PLAYORDER=
